Patient4_TMGait_0pt7_01_left_35_EMG.mot
version=1
nRows=23
nColumns=33
inDegrees=no
endheader
time	1LAddLong	2LGlutMax	3LGlutMed	4LIliopsoas	5LSemiMemb	6LBicFemLong	7LRecFem	8LVastMed	9LVastLat	10LGasMed	11LTibAnt	12lTibPost	13LPeroneusLong	14LSol	15LExtDigLong	16LFlexDigLong	17RAddLong	18RGlutMax	19RGlutMed	20RIliopsoas	21RSemiMemb	22RBicFemLong	23RRecFem	24RVastMed	25RVastLat	26RGasMed	27RTibAnt	28RTibPost	29RPeroneusLong	30RSol	31RExtDigLong	32RFlexDigLong
41.215	-0.012054	0.036774	-0.16129	0.022736	0.008087	0.00946	-0.28214	0.008392	-0.041504	-0.39032	0.010834	0.004578	-0.011444	-0.27588	0.12497	-0.004578	0.032196	-0.33615	-0.076141	0.14297	0.22903	-0.16632	0.087738	-0.28793	1.0007	-0.01709	0.36362	0.00061	-0.2507	-0.011749	-0.002594	-0.006256
41.216	-0.004425	0.049744	-0.18463	0.007935	0.022278	-0.036163	-0.27557	0.005035	-0.032349	-0.36835	-0.012817	0.018463	0.076904	-0.21011	0.098572	-0.005188	-0.11215	-0.44876	0.82672	0.053253	0.084076	-0.027161	-0.16037	0.097504	0.65597	-0.011749	0.2626	-0.002899	-0.65964	-0.068512	-0.00061	-0.007172
41.217	-0.004272	0.10468	-0.2002	0.005798	0.010223	-0.091248	-0.28061	0.007935	-0.032349	-0.23392	-0.027771	0.014343	0.083008	-0.17319	0.072327	0	-0.18784	-0.52124	0.73425	0.03952	-0.2002	-0.08606	-0.14526	0.43533	0.20248	-0.012817	-0.021057	-0.002594	-0.40451	-0.17654	-0.002136	-0.005035
41.218	-0.00351	0.10498	-0.19104	0.010529	0.016632	-0.14297	-0.28137	0.00351	-0.027313	-0.34119	-0.006866	0.010681	0.061493	0.006714	0.057983	0.016785	-0.083313	-0.60165	-0.072021	0.059662	0.3064	-0.30472	0.020294	0.47852	-0.16159	-0.007935	-0.20126	-0.007019	0.73105	-0.28549	0.000916	-0.0177
41.219	0.002899	0.094757	-0.14145	-0.013428	0.007172	-0.11795	-0.28763	0.005646	-0.016479	-0.25833	-0.001984	0.007172	0.007629	0.095215	0.049591	-0.007019	-0.014343	-0.55496	-0.056763	0.002747	0.50308	-0.38773	0.27481	0.42969	-0.49911	-0.005188	-0.19653	-0.002136	0.84747	-0.27802	-0.00061	-0.012665
41.22	-0.005341	0.11551	-0.0914	0.000153	-0.001831	-0.060883	-0.27039	0.002136	-0.024109	-0.061188	0.002136	0.002289	0.000763	0.061951	0.056763	-0.019836	0.025787	-0.39093	0.24139	-0.049286	0.41733	-0.48431	0.26062	0.4425	-0.57892	0.005035	0.037537	0.003204	0.36529	-0.24368	-0.003357	-0.002136
41.221	-0.007324	0.12985	-0.044098	-0.012207	0.009155	-0.020905	-0.27817	0.003357	0.001678	-0.000916	-0.000763	-0.006104	0.003357	0.15533	0.038147	-0.016785	0.10101	-0.26901	0.46707	-0.11841	0.30701	-0.4509	0.1683	0.46173	-0.69336	0.006866	-0.019379	-0.002594	-0.83679	-0.19638	0.000763	-0.005188
41.222	-0.006256	0.10513	-0.017395	-0.005493	0.011902	-0.020599	-0.24429	0.009766	-0.012665	-0.006409	-0.003815	0.007935	0.00946	0.14404	0.016785	-0.016022	0.11093	-0.21774	0.27496	-0.07431	0.3215	-0.27329	0.18784	0.38742	-0.75165	-0.00061	-0.22079	0	-1.1452	-0.026855	0.003052	-0.011139
41.223	-0.002289	0.092621	-0.027466	0.0177	0.003967	0.042877	-0.23804	0.009308	-0.00412	0.011902	-0.001373	0.004883	-0.012665	0.068359	-0.005188	-0.010071	0.12253	-0.096436	-0.2211	0.04715	0.44952	-0.27023	0.17502	0.36575	-0.44434	-0.009155	-0.30914	-0.007629	-0.91827	0.076599	-0.002747	-0.021362
41.224	-0.013123	0.075073	-0.048676	0.033112	-0.005341	0.038605	-0.26428	0.00946	0.00946	0.039978	0.003052	-0.016327	-0.027771	0.14603	-0.031891	-0.013733	0.094452	0.03891	-0.28595	-0.021515	0.29144	-0.41016	0.12817	0.18356	-0.1889	-0.007019	0.25421	-0.004272	-0.11231	0.069275	0.00061	-0.019379
41.225	-0.007935	0.087891	-0.017242	-0.010071	-0.012512	-0.005798	-0.29739	0.011292	0.041809	0.049744	-0.005646	0.018616	-0.028076	0.17593	-0.046844	-0.011139	0.08728	0.1619	0.47394	-0.078735	-0.084229	-0.36713	-0.00824	-0.070801	-0.023651	-0.007172	0.54092	-0.005493	0.13565	0.018158	0	-0.01358
41.226	-0.004578	0.095367	-0.05188	0.001068	-0.025482	-0.028229	-0.28275	0.002441	0.033264	0.067291	-0.013275	0.003815	-0.008545	0.16907	-0.035553	-0.005188	0.10208	0.13565	0.28183	-0.042419	0.0914	-0.40497	0.023193	-0.32913	0.12878	-0.002899	0.26489	0.001068	-0.49545	-0.043945	-0.001526	-0.012207
41.227	-0.002899	0.1329	-0.028992	-0.005798	-0.030212	-0.074158	-0.27603	0.002899	0.042877	0.080872	0.00824	0.000153	-0.008087	0.1059	-0.053864	-0.007019	0.11704	0.18997	0.064545	0.005188	0.17853	-0.48019	0.12558	-0.61264	0.20554	-0.004883	-0.56229	-0.002289	-0.70129	0.000305	0.000916	-0.009766
41.228	0.001984	0.16678	-0.02182	0.008087	-0.007019	-0.10284	-0.28015	0.000763	0.043335	0.073853	0.060883	-0.002594	-0.010223	0.06424	-0.016632	-0.008087	0.11154	0.1976	-0.27054	0.046387	-0.00412	-0.24017	0.11292	-0.5661	0.10468	0	-0.83221	-0.001984	0.30533	-0.02594	-0.001373	-0.010681
41.229	0.001678	0.16708	-0.031891	0.003357	0.002594	-0.13916	-0.29205	-0.006104	0.052185	0.077209	0.046692	0.006561	-0.028992	0.069427	0.072479	-0.015411	0.085754	0.2182	-0.19409	0.056915	-0.096741	-0.12299	0.28824	-0.52185	0.1889	-0.002899	-0.43427	-0.005035	0.89111	-0.13214	-0.000916	-0.003357
41.23	0.005493	0.1831	-0.011444	0.011597	0.009613	-0.026093	-0.27771	-0.00946	0.026398	0.091858	0.023956	0.001678	-0.007935	0.06546	0.11704	-0.008545	0.046844	0.25345	-0.1564	0.055847	-0.18112	-0.27557	0.3447	-0.41718	0.60928	-0.005341	-0.29709	-0.001678	0.20645	-0.23544	-0.000763	-0.002594
41.231	0.005341	0.24109	0.002289	0.030212	0.020905	0.10147	-0.28641	0.011902	0.032501	-0.025635	-0.005493	-0.000153	0.019226	0.096741	0.12436	-0.003357	-0.027466	0.28442	-0.072937	-0.037537	-0.21393	-0.30945	0.39444	-0.1445	0.44937	-0.009613	-0.13565	-0.00351	0.60501	-0.177	0.000763	-0.004883
41.232	-0.001221	0.23361	0.053711	0.000305	-0.013428	0.13367	-0.26657	0.005493	0.00885	-0.2179	-0.01297	0.000763	0.041656	0.10849	0.11078	-0.012207	-0.082855	0.37537	0.2832	-0.13825	-0.06424	-0.045319	0.52155	-0.050659	-0.015717	-0.01297	-0.39276	-0.006866	0.336	-0.026703	-0.007629	-0.006409
41.233	-0.005798	0.22705	0.033569	0.006104	-0.033569	-0.005646	-0.26672	0.002289	0.012512	-0.23743	0.041199	0.005188	-0.037079	0.11215	0.066986	-0.013428	-0.081787	0.51682	-0.013428	-0.15442	0.28809	-0.054626	0.59921	0.085449	-0.29663	-0.006866	-0.93353	-0.002899	-0.13367	-0.041351	-0.006256	-0.001373
41.234	-0.002136	0.20935	0.04837	-0.006409	-0.027924	-0.080719	-0.27634	-0.002594	0.026703	-0.20935	0.05249	0.000305	-0.13001	0.11337	-0.023346	-0.007935	-0.033417	0.50095	-0.07309	-0.045624	0.78903	-0.099487	0.56961	0.71899	-0.3305	0.003357	-0.7135	0.000153	-0.97031	-0.11963	-0.001678	-0.003204
41.235	-0.003967	0.18265	0.07843	0.00473	-0.000916	-0.13184	-0.27161	0.004272	0.005951	-0.22995	0.076752	0.002441	-0.15747	0.090637	-0.082245	-0.012512	0.00351	0.44205	-0.1918	0.13123	0.65979	-0.31509	0.45883	0.35294	-0.19501	0.009308	-0.06485	0.002594	-0.21957	-0.34714	0.001526	-0.000305
41.236	0.00351	0.23285	0.10468	0.004883	0.027313	-0.12268	-0.26367	-0.001068	0.00824	-0.11765	-0.010223	-0.003662	-0.12634	0.050354	-0.10788	-0.008392	-0.009003	0.47134	-0.080261	0.22644	0.56503	-0.61203	0.2977	0.21973	-0.31647	0.020447	0.2121	0.001068	1.6182	-0.40604	-0.001526	0
41.237	0.008087	0.2562	0.11017	0.006866	0.038147	-0.09613	-0.27069	-0.004272	0.012512	0.11017	0.010681	-0.00061	-0.084381	-0.00351	-0.028839	-0.014191	-0.014343	0.61752	0.45685	0.22675	0.44632	-0.56656	0.47897	0.12421	-0.33478	0.025024	0.58685	-0.003662	2.5905	-0.45013	0.00061	0.000916
